<svg class="icon-command" viewBox="0 0 32 32">
<path d="M23 28c-2.757 0-5-2.243-5-5v-3h-4v3c0 2.757-2.243 5-5 5s-5-2.243-5-5 2.243-5 5-5h3v-4h-3c-2.757 0-5-2.243-5-5s2.243-5 5-5 5 2.243 5 5v3h4v-3c0-2.757 2.243-5 5-5s5 2.243 5 5-2.243 5-5 5h-3v4h3c2.757 0 5 2.243 5 5s-2.243 5-5 5zM20 20v3c0 1.654 1.346 3 3 3s3-1.346 3-3-1.346-3-3-3h-3zM9 20c-1.654 0-3 1.346-3 3s1.346 3 3 3 3-1.346 3-3v-3h-3zM14 18h4v-4h-4v4zM20 12h3c1.654 0 3-1.346 3-3s-1.346-3-3-3-3 1.346-3 3v3zM9 6c-1.654 0-3 1.346-3 3s1.346 3 3 3h3v-3c0-1.654-1.346-3-3-3z"></path>
</svg>