<?xml version="1.0" encoding="iso-8859-1"?>
<!-- Generator: Adobe Illustrator 19.0.0, SVG Export Plug-In . SVG Version: 6.00 Build 0)  -->
<svg version="1.1" id="Capa_1" xmlns="http://www.w3.org/2000/svg" xmlns:xlink="http://www.w3.org/1999/xlink" x="0px" y="0px"
	 viewBox="0 0 512 512" style="enable-background:new 0 0 512 512;" xml:space="preserve">
<g>
	<g>
		<path d="M411.612,56.377H204.438c-5.512,0-9.981,4.47-9.981,9.981c0,5.512,4.47,9.981,9.981,9.981h207.174
			c5.512,0,9.981-4.47,9.981-9.981C421.593,60.847,417.123,56.377,411.612,56.377z"/>
	</g>
</g>
<g>
	<g>
		<path d="M103.234,59.302c-1.857-1.857-4.431-2.924-7.057-2.924c-2.625,0-5.2,1.067-7.056,2.924
			c-1.857,1.857-2.925,4.422-2.925,7.057c0,2.625,1.068,5.2,2.925,7.056c1.855,1.857,4.431,2.925,7.056,2.925
			c2.626,0,5.2-1.068,7.057-2.925c1.857-1.855,2.924-4.431,2.924-7.056C106.158,63.733,105.091,61.158,103.234,59.302z"/>
	</g>
</g>
<g>
	<g>
		<path d="M66.553,59.302c-1.857-1.857-4.431-2.924-7.057-2.924c-2.625,0-5.2,1.067-7.056,2.924
			c-1.857,1.857-2.925,4.432-2.925,7.057c0,2.625,1.068,5.2,2.925,7.056c1.855,1.857,4.431,2.925,7.056,2.925
			c2.626,0,5.2-1.068,7.057-2.925c1.857-1.855,2.924-4.431,2.924-7.056C69.478,63.733,68.411,61.158,66.553,59.302z"/>
	</g>
</g>
<g>
	<g>
		<path d="M139.915,59.302c-1.866-1.857-4.431-2.924-7.067-2.924c-2.625,0-5.19,1.067-7.056,2.924
			c-1.856,1.857-2.925,4.432-2.925,7.057c0,2.625,1.068,5.2,2.925,7.056c1.865,1.857,4.431,2.925,7.056,2.925
			c2.636,0,5.2-1.068,7.067-2.925c1.857-1.855,2.914-4.431,2.914-7.056C142.83,63.733,141.772,61.158,139.915,59.302z"/>
	</g>
</g>
<g>
	<g>
		<path d="M509.077,436.161l-78.575-78.574l12.327-12.327c0.003-0.003,0.007-0.006,0.01-0.009s0.006-0.007,0.009-0.01l12.324-12.324
			l38.817,38.818c3.899,3.897,10.217,3.897,14.116,0c3.898-3.898,3.898-10.218,0-14.116l-45.874-45.874
			c-3.897-3.896-10.215-3.898-14.116,0l-12.334,12.333l-5.975-5.975c17.162-20.347,27.521-46.61,27.521-75.25
			c0-64.451-52.435-116.886-116.886-116.886c-33.204,0-63.219,13.918-84.517,36.225c-0.094-0.003-0.185-0.014-0.279-0.014H63.879
			c-5.512,0-9.981,4.47-9.981,9.981v139.736c0,5.512,4.47,9.981,9.981,9.981h190.515c21.38,23.261,52.038,37.864,86.046,37.864
			c28.64,0,54.901-10.36,75.25-27.521l5.975,5.975l-12.337,12.337c-1.871,1.871-2.923,4.411-2.923,7.058
			c0,2.647,1.052,5.185,2.923,7.058l41.819,41.819v43.169c0,12.108-9.85,21.958-21.958,21.958H41.921
			c-12.108,0-21.958-9.85-21.958-21.958V112.266c0.037,0,0.073,0.006,0.109,0.006h431.076v44.988c0,5.512,4.47,9.981,9.981,9.981
			s9.981-4.47,9.981-9.981V62.366c0-23.115-18.805-41.921-41.921-41.921H41.921C18.805,20.445,0,39.251,0,62.366v387.268
			c0,23.115,18.805,41.921,41.921,41.921h387.268c23.115,0,41.921-18.805,41.921-41.921v-23.208l23.851,23.851
			c1.949,1.948,4.503,2.923,7.058,2.923s5.108-0.975,7.058-2.923C512.974,446.379,512.974,440.059,509.077,436.161z
			 M223.592,245.891l-12.578-24.297c-2.534-4.896-8.559-6.809-13.454-4.275c-4.895,2.534-6.809,8.557-4.275,13.454l23.438,45.275
			c1.775,3.429,5.261,5.394,8.872,5.394c1.406,0,2.829-0.314,4.179-0.94c2.561,7.509,5.872,14.673,9.834,21.411H73.86V182.139
			h166.733c-10.807,17.707-17.04,38.495-17.04,60.713C223.553,243.869,223.566,244.882,223.592,245.891z M340.44,339.775
			c-53.443,0-96.924-43.479-96.924-96.923c0-0.761,0.011-1.519,0.029-2.276l18.361,35.47c1.717,3.317,5.137,5.393,8.863,5.393
			c0.05,0,0.101,0,0.15-0.001c3.784-0.057,7.21-2.248,8.848-5.659l21.745-45.275c2.386-4.97,0.292-10.931-4.677-13.319
			c-4.965-2.385-10.931-0.292-13.319,4.677l-13.081,27.239l-14.239-27.506c-1.789-3.455-5.316-5.416-8.956-5.386
			c11.604-40.53,48.992-70.281,93.2-70.281c53.444,0,96.924,43.481,96.924,96.924C437.364,296.295,393.883,339.775,340.44,339.775z
			 M19.962,62.366c0-12.108,9.85-21.958,21.958-21.958h387.268c12.108,0,21.958,9.85,21.958,21.958v29.943H20.071
			c-0.037,0-0.073,0.005-0.109,0.006V62.366z"/>
	</g>
</g>
<g>
	<g>
		<path d="M182.476,217.185c-4.965-2.384-10.931-0.292-13.319,4.677l-13.081,27.238l-14.239-27.506
			c-1.739-3.362-5.215-5.46-9.013-5.392c-3.784,0.057-7.21,2.248-8.848,5.659l-13.081,27.238l-14.239-27.506
			c-2.534-4.897-8.561-6.81-13.453-4.276c-4.896,2.534-6.81,8.557-4.276,13.453l23.437,45.275c1.74,3.362,5.242,5.45,9.013,5.392
			c3.784-0.057,7.21-2.248,8.848-5.659l13.081-27.239l14.239,27.506c1.717,3.317,5.137,5.393,8.863,5.393c0.05,0,0.101,0,0.15-0.001
			c3.784-0.057,7.21-2.248,8.848-5.659l21.745-45.275C189.539,225.535,187.446,219.573,182.476,217.185z"/>
	</g>
</g>
<g>
	<g>
		<path d="M411.197,217.185c-4.97-2.384-10.931-0.292-13.319,4.677l-13.081,27.238l-14.239-27.507
			c-1.739-3.36-5.258-5.437-9.013-5.391c-3.784,0.057-7.21,2.248-8.848,5.659l-13.081,27.239l-14.239-27.507
			c-2.534-4.894-8.555-6.809-13.454-4.275c-4.895,2.534-6.809,8.557-4.275,13.454l23.438,45.275
			c1.717,3.315,5.137,5.392,8.863,5.392c0.051,0,0.101,0,0.15-0.001c3.784-0.057,7.21-2.248,8.848-5.659l13.081-27.238
			l14.239,27.507c1.717,3.315,5.137,5.392,8.863,5.392c0.051,0,0.101,0,0.15-0.001c3.784-0.057,7.21-2.248,8.848-5.659
			l21.744-45.275C418.259,225.535,416.165,219.573,411.197,217.185z"/>
	</g>
</g>
<g>
	<g>
		<path d="M70.935,400.656c-1.855-1.866-4.431-2.924-7.056-2.924c-2.625,0-5.2,1.058-7.057,2.924
			c-1.857,1.857-2.924,4.432-2.924,7.057c0,2.625,1.067,5.2,2.924,7.056c1.857,1.857,4.432,2.925,7.057,2.925
			c2.625,0,5.2-1.068,7.056-2.925c1.857-1.855,2.925-4.431,2.925-7.056C73.86,405.088,72.792,402.513,70.935,400.656z"/>
	</g>
</g>
<g>
	<g>
		<path d="M292.515,397.742H98.147c-5.512,0-9.981,4.469-9.981,9.981c0,5.512,4.47,9.981,9.981,9.981h194.367
			c5.512,0,9.981-4.47,9.981-9.981C302.496,402.211,298.027,397.742,292.515,397.742z"/>
	</g>
</g>
<g>
	<g>
		<path d="M255.517,349.827h-58.889c-5.512,0-9.981,4.47-9.981,9.981c0,5.512,4.47,9.981,9.981,9.981h58.889
			c5.512,0,9.981-4.47,9.981-9.981C265.498,354.297,261.029,349.827,255.517,349.827z"/>
	</g>
</g>
<g>
	<g>
		<path d="M151.804,349.827H63.879c-5.512,0-9.981,4.47-9.981,9.981c0,5.512,4.47,9.981,9.981,9.981h87.925
			c5.512,0,9.981-4.47,9.981-9.981C161.785,354.297,157.316,349.827,151.804,349.827z"/>
	</g>
</g>
<g>
</g>
<g>
</g>
<g>
</g>
<g>
</g>
<g>
</g>
<g>
</g>
<g>
</g>
<g>
</g>
<g>
</g>
<g>
</g>
<g>
</g>
<g>
</g>
<g>
</g>
<g>
</g>
<g>
</g>
</svg>
